<svg xmlns="http://www.w3.org/2000/svg" xmlns:xlink="http://www.w3.org/1999/xlink" width="1080" zoomAndPan="magnify" viewBox="0 0 810 809.999993" height="1080" preserveAspectRatio="xMidYMid meet" version="1.0"><defs><clipPath id="3e5d142a87"><path d="M 153 332.136719 L 657 332.136719 L 657 477.863281 L 153 477.863281 Z M 153 332.136719 " clip-rule="nonzero"/></clipPath><clipPath id="dd747b1b51"><path d="M 311.625 114.75 L 498.375 114.75 L 498.375 301.5 L 311.625 301.5 Z M 311.625 114.75 " clip-rule="nonzero"/></clipPath><clipPath id="7cd274a324"><path d="M 405 114.75 C 353.429688 114.75 311.625 156.554688 311.625 208.125 C 311.625 259.695312 353.429688 301.5 405 301.5 C 456.570312 301.5 498.375 259.695312 498.375 208.125 C 498.375 156.554688 456.570312 114.75 405 114.75 Z M 405 114.75 " clip-rule="nonzero"/></clipPath><clipPath id="33dd8e815d"><path d="M 311.625 508.613281 L 498.375 508.613281 L 498.375 695.363281 L 311.625 695.363281 Z M 311.625 508.613281 " clip-rule="nonzero"/></clipPath><clipPath id="a81d91fe2a"><path d="M 405 508.613281 C 353.429688 508.613281 311.625 550.421875 311.625 601.988281 C 311.625 653.558594 353.429688 695.363281 405 695.363281 C 456.570312 695.363281 498.375 653.558594 498.375 601.988281 C 498.375 550.421875 456.570312 508.613281 405 508.613281 Z M 405 508.613281 " clip-rule="nonzero"/></clipPath></defs><g clip-path="url(#3e5d142a87)"><path fill="#ffffff" d="M 153 332.136719 L 656.792969 332.136719 L 656.792969 477.863281 L 153 477.863281 Z M 153 332.136719 " fill-opacity="1" fill-rule="nonzero"/></g><g clip-path="url(#dd747b1b51)"><g clip-path="url(#7cd274a324)"><path fill="#ffffff" d="M 311.625 114.75 L 498.375 114.75 L 498.375 301.5 L 311.625 301.5 Z M 311.625 114.75 " fill-opacity="1" fill-rule="nonzero"/></g></g><g clip-path="url(#33dd8e815d)"><g clip-path="url(#a81d91fe2a)"><path fill="#ffffff" d="M 311.625 508.613281 L 498.375 508.613281 L 498.375 695.363281 L 311.625 695.363281 Z M 311.625 508.613281 " fill-opacity="1" fill-rule="nonzero"/></g></g></svg>