<svg xmlns="http://www.w3.org/2000/svg" xmlns:xlink="http://www.w3.org/1999/xlink" width="1080" zoomAndPan="magnify" viewBox="0 0 810 809.999993" height="1080" preserveAspectRatio="xMidYMid meet" version="1.0"><defs><clipPath id="35f641bae1"><path d="M 29.25 29.25 L 780.75 29.25 L 780.75 780.75 L 29.25 780.75 Z M 29.25 29.25 " clip-rule="nonzero"/></clipPath></defs><g clip-path="url(#35f641bae1)"><path fill="#000000" d="M 780.75 405 C 780.75 411.148438 780.597656 417.296875 780.296875 423.4375 C 779.996094 429.578125 779.542969 435.710938 778.941406 441.828125 C 778.335938 447.949219 777.585938 454.050781 776.683594 460.132812 C 775.78125 466.21875 774.730469 472.273438 773.53125 478.304688 C 772.332031 484.335938 770.984375 490.335938 769.488281 496.300781 C 767.996094 502.265625 766.355469 508.191406 764.570312 514.074219 C 762.785156 519.960938 760.855469 525.796875 758.785156 531.585938 C 756.714844 537.375 754.5 543.113281 752.148438 548.792969 C 749.792969 554.476562 747.304688 560.09375 744.671875 565.652344 C 742.042969 571.210938 739.28125 576.703125 736.382812 582.128906 C 733.484375 587.550781 730.453125 592.898438 727.292969 598.175781 C 724.128906 603.449219 720.839844 608.640625 717.425781 613.753906 C 714.007812 618.867188 710.46875 623.894531 706.804688 628.832031 C 703.140625 633.773438 699.359375 638.621094 695.457031 643.375 C 691.558594 648.125 687.542969 652.78125 683.414062 657.339844 C 679.28125 661.894531 675.042969 666.347656 670.695312 670.695312 C 666.347656 675.042969 661.894531 679.28125 657.339844 683.414062 C 652.78125 687.542969 648.125 691.558594 643.375 695.457031 C 638.621094 699.359375 633.773438 703.140625 628.832031 706.804688 C 623.894531 710.46875 618.867188 714.007812 613.753906 717.425781 C 608.640625 720.839844 603.449219 724.128906 598.175781 727.292969 C 592.898438 730.453125 587.550781 733.484375 582.128906 736.382812 C 576.703125 739.28125 571.210938 742.042969 565.652344 744.675781 C 560.09375 747.304688 554.472656 749.792969 548.792969 752.148438 C 543.113281 754.5 537.375 756.714844 531.585938 758.785156 C 525.796875 760.855469 519.957031 762.785156 514.074219 764.570312 C 508.191406 766.355469 502.265625 767.996094 496.300781 769.488281 C 490.335938 770.984375 484.335938 772.332031 478.304688 773.53125 C 472.273438 774.730469 466.214844 775.78125 460.132812 776.683594 C 454.050781 777.585938 447.949219 778.335938 441.828125 778.941406 C 435.710938 779.542969 429.578125 779.996094 423.4375 780.296875 C 417.296875 780.597656 411.148438 780.75 405 780.75 C 398.851562 780.75 392.703125 780.597656 386.5625 780.296875 C 380.421875 779.996094 374.289062 779.542969 368.171875 778.941406 C 362.050781 778.339844 355.949219 777.585938 349.867188 776.683594 C 343.78125 775.78125 337.726562 774.730469 331.695312 773.53125 C 325.664062 772.332031 319.664062 770.984375 313.699219 769.488281 C 307.734375 767.996094 301.808594 766.355469 295.925781 764.570312 C 290.039062 762.785156 284.203125 760.855469 278.414062 758.785156 C 272.625 756.714844 266.886719 754.5 261.207031 752.148438 C 255.523438 749.792969 249.90625 747.304688 244.347656 744.675781 C 238.785156 742.042969 233.296875 739.28125 227.871094 736.382812 C 222.449219 733.484375 217.101562 730.453125 211.824219 727.292969 C 206.550781 724.128906 201.359375 720.839844 196.246094 717.425781 C 191.132812 714.007812 186.105469 710.46875 181.164062 706.804688 C 176.226562 703.140625 171.378906 699.359375 166.625 695.457031 C 161.875 691.558594 157.21875 687.542969 152.660156 683.414062 C 148.105469 679.28125 143.652344 675.042969 139.304688 670.695312 C 134.957031 666.347656 130.71875 661.894531 126.585938 657.339844 C 122.457031 652.78125 118.441406 648.125 114.542969 643.375 C 110.640625 638.621094 106.859375 633.773438 103.195312 628.832031 C 99.53125 623.894531 95.992188 618.867188 92.574219 613.753906 C 89.160156 608.640625 85.871094 603.449219 82.707031 598.175781 C 79.546875 592.898438 76.515625 587.550781 73.617188 582.128906 C 70.71875 576.703125 67.957031 571.210938 65.324219 565.652344 C 62.695312 560.09375 60.207031 554.472656 57.851562 548.792969 C 55.5 543.113281 53.285156 537.375 51.214844 531.585938 C 49.144531 525.796875 47.214844 519.960938 45.429688 514.074219 C 43.644531 508.191406 42.003906 502.265625 40.511719 496.300781 C 39.015625 490.335938 37.667969 484.335938 36.46875 478.304688 C 35.269531 472.273438 34.21875 466.21875 33.316406 460.132812 C 32.414062 454.050781 31.660156 447.949219 31.058594 441.828125 C 30.457031 435.710938 30.003906 429.578125 29.703125 423.4375 C 29.402344 417.296875 29.25 411.148438 29.25 405 C 29.25 398.851562 29.402344 392.703125 29.703125 386.5625 C 30.003906 380.421875 30.457031 374.289062 31.058594 368.171875 C 31.660156 362.050781 32.414062 355.949219 33.316406 349.867188 C 34.21875 343.78125 35.269531 337.726562 36.46875 331.695312 C 37.667969 325.664062 39.015625 319.664062 40.511719 313.699219 C 42.003906 307.734375 43.644531 301.808594 45.429688 295.925781 C 47.214844 290.039062 49.144531 284.203125 51.214844 278.414062 C 53.285156 272.625 55.5 266.886719 57.851562 261.207031 C 60.207031 255.523438 62.695312 249.90625 65.324219 244.347656 C 67.957031 238.789062 70.71875 233.296875 73.617188 227.871094 C 76.515625 222.449219 79.546875 217.101562 82.707031 211.824219 C 85.871094 206.550781 89.160156 201.359375 92.574219 196.246094 C 95.992188 191.132812 99.53125 186.105469 103.195312 181.164062 C 106.859375 176.226562 110.640625 171.378906 114.542969 166.625 C 118.441406 161.875 122.457031 157.21875 126.585938 152.660156 C 130.71875 148.105469 134.957031 143.652344 139.304688 139.304688 C 143.652344 134.957031 148.105469 130.71875 152.660156 126.585938 C 157.21875 122.457031 161.875 118.441406 166.625 114.542969 C 171.378906 110.640625 176.226562 106.859375 181.164062 103.195312 C 186.105469 99.53125 191.132812 95.992188 196.246094 92.574219 C 201.359375 89.160156 206.550781 85.871094 211.824219 82.707031 C 217.101562 79.546875 222.449219 76.515625 227.871094 73.617188 C 233.296875 70.71875 238.785156 67.957031 244.347656 65.324219 C 249.90625 62.695312 255.523438 60.207031 261.207031 57.851562 C 266.886719 55.5 272.625 53.285156 278.414062 51.214844 C 284.203125 49.144531 290.039062 47.214844 295.925781 45.429688 C 301.808594 43.644531 307.734375 42.003906 313.699219 40.511719 C 319.664062 39.015625 325.664062 37.667969 331.695312 36.46875 C 337.726562 35.269531 343.78125 34.21875 349.867188 33.316406 C 355.949219 32.414062 362.050781 31.660156 368.171875 31.058594 C 374.289062 30.457031 380.421875 30.003906 386.5625 29.703125 C 392.703125 29.402344 398.851562 29.25 405 29.25 C 411.148438 29.25 417.296875 29.402344 423.4375 29.703125 C 429.578125 30.003906 435.710938 30.457031 441.828125 31.058594 C 447.949219 31.660156 454.050781 32.414062 460.132812 33.316406 C 466.214844 34.21875 472.273438 35.269531 478.304688 36.46875 C 484.335938 37.667969 490.335938 39.015625 496.300781 40.511719 C 502.265625 42.003906 508.191406 43.644531 514.074219 45.429688 C 519.960938 47.214844 525.796875 49.144531 531.585938 51.214844 C 537.375 53.285156 543.113281 55.5 548.792969 57.851562 C 554.472656 60.207031 560.09375 62.695312 565.652344 65.324219 C 571.210938 67.957031 576.703125 70.71875 582.128906 73.617188 C 587.550781 76.515625 592.898438 79.546875 598.175781 82.707031 C 603.449219 85.871094 608.640625 89.160156 613.753906 92.574219 C 618.867188 95.992188 623.894531 99.53125 628.832031 103.195312 C 633.773438 106.859375 638.621094 110.640625 643.375 114.542969 C 648.125 118.441406 652.78125 122.457031 657.339844 126.585938 C 661.894531 130.71875 666.347656 134.957031 670.695312 139.304688 C 675.042969 143.652344 679.28125 148.105469 683.414062 152.660156 C 687.542969 157.21875 691.558594 161.875 695.457031 166.625 C 699.359375 171.378906 703.140625 176.226562 706.804688 181.164062 C 710.46875 186.105469 714.007812 191.132812 717.425781 196.246094 C 720.839844 201.359375 724.128906 206.550781 727.292969 211.824219 C 730.453125 217.101562 733.484375 222.449219 736.382812 227.871094 C 739.28125 233.296875 742.042969 238.789062 744.671875 244.347656 C 747.304688 249.90625 749.792969 255.523438 752.148438 261.207031 C 754.5 266.886719 756.714844 272.625 758.785156 278.414062 C 760.855469 284.203125 762.785156 290.039062 764.570312 295.925781 C 766.355469 301.808594 767.996094 307.734375 769.488281 313.699219 C 770.984375 319.664062 772.332031 325.664062 773.53125 331.695312 C 774.730469 337.726562 775.78125 343.78125 776.683594 349.867188 C 777.585938 355.949219 778.335938 362.050781 778.941406 368.171875 C 779.542969 374.289062 779.996094 380.421875 780.296875 386.5625 C 780.597656 392.703125 780.75 398.851562 780.75 405 Z M 780.75 405 " fill-opacity="1" fill-rule="nonzero"/></g></svg>