<svg xmlns="http://www.w3.org/2000/svg" xmlns:xlink="http://www.w3.org/1999/xlink" width="1080" zoomAndPan="magnify" viewBox="0 0 810 809.999993" height="1080" preserveAspectRatio="xMidYMid meet" version="1.0"><defs><clipPath id="e3a858d255"><path d="M 345.636719 153 L 432.867188 153 L 432.867188 656.996094 L 345.636719 656.996094 Z M 345.636719 153 " clip-rule="nonzero"/></clipPath><clipPath id="9428c4a838"><path d="M 179 195 L 599 195 L 599 615 L 179 615 Z M 179 195 " clip-rule="nonzero"/></clipPath><clipPath id="f0f4cee100"><path d="M 242.332031 195.535156 L 598.714844 551.917969 L 536.167969 614.464844 L 179.785156 258.082031 Z M 242.332031 195.535156 " clip-rule="nonzero"/></clipPath><clipPath id="9bc68710b8"><path d="M 180 195 L 599 195 L 599 614 L 180 614 Z M 180 195 " clip-rule="nonzero"/></clipPath><clipPath id="d39e5c918b"><path d="M 598.710938 256.953125 L 242.332031 613.335938 L 180.910156 551.914062 L 537.289062 195.53125 Z M 598.710938 256.953125 " clip-rule="nonzero"/></clipPath></defs><g clip-path="url(#e3a858d255)"><path fill="#ffffff" d="M 345.636719 656.996094 L 345.636719 153.035156 L 432.867188 153.035156 L 432.867188 656.996094 Z M 345.636719 656.996094 " fill-opacity="1" fill-rule="nonzero"/></g><g clip-path="url(#9428c4a838)"><g clip-path="url(#f0f4cee100)"><path fill="#ffffff" d="M 242.332031 195.535156 L 598.800781 552.003906 L 536.253906 614.550781 L 179.785156 258.082031 Z M 242.332031 195.535156 " fill-opacity="1" fill-rule="nonzero"/></g></g><g clip-path="url(#9bc68710b8)"><g clip-path="url(#d39e5c918b)"><path fill="#ffffff" d="M 598.710938 256.953125 L 242.417969 613.25 L 180.996094 551.828125 L 537.289062 195.53125 Z M 598.710938 256.953125 " fill-opacity="1" fill-rule="nonzero"/></g></g></svg>