<svg xmlns="http://www.w3.org/2000/svg" xmlns:xlink="http://www.w3.org/1999/xlink" width="1080" zoomAndPan="magnify" viewBox="0 0 810 809.999993" height="1080" preserveAspectRatio="xMidYMid meet" version="1.0"><path fill="#ffffff" d="M 293.277344 198.308594 C 290.191406 198.308594 287.691406 195.808594 287.691406 192.722656 C 287.691406 192.722656 287.691406 97.890625 287.691406 97.890625 C 287.691406 88.636719 280.1875 81.132812 270.929688 81.132812 L 215.070312 81.132812 C 205.8125 81.132812 198.308594 88.636719 198.308594 97.890625 L 198.308594 192.722656 C 198.308594 195.808594 195.808594 198.308594 192.722656 198.308594 C 192.722656 198.308594 97.894531 198.308594 97.894531 198.308594 C 88.636719 198.308594 81.132812 205.8125 81.132812 215.070312 L 81.132812 270.929688 C 81.132812 280.1875 88.636719 287.691406 97.894531 287.691406 L 192.722656 287.691406 C 195.808594 287.691406 198.308594 290.191406 198.308594 293.277344 C 198.308594 293.277344 198.308594 388.105469 198.308594 388.105469 C 198.308594 397.363281 205.8125 404.867188 215.070312 404.867188 L 270.929688 404.867188 C 280.1875 404.867188 287.691406 397.363281 287.691406 388.105469 L 287.691406 293.277344 C 287.691406 290.191406 290.191406 287.691406 293.277344 287.691406 C 293.277344 287.691406 388.105469 287.691406 388.105469 287.691406 C 397.363281 287.691406 404.867188 280.1875 404.867188 270.929688 L 404.867188 215.070312 C 404.867188 205.8125 397.363281 198.308594 388.105469 198.308594 Z M 293.277344 198.308594 " fill-opacity="1" fill-rule="evenodd"/><path stroke-linecap="round" transform="matrix(0.75, 0, 0, 0.75, 442.800005, 539.249993)" fill="none" stroke-linejoin="miter" d="M 46.001037 46.000012 L 299.600008 46.000012 " stroke="#ffffff" stroke-width="92" stroke-opacity="1" stroke-miterlimit="4"/><path stroke-linecap="round" transform="matrix(0.555775, -0.503601, 0.503601, 0.555775, 144.761994, 630.018612)" fill="none" stroke-linejoin="miter" d="M 44.498612 44.497788 L 947.366556 44.500403 " stroke="#ffffff" stroke-width="89" stroke-opacity="1" stroke-miterlimit="4"/></svg>